#!OML:ASF H:\Terrain\Patient Classification 1\Walking\liu\liu.ASF
:FULLY-SPECIFIED
:DEGREES
469
root 21.757999 34.792999 58.979599 7.926040 8.519800 5.674500
lowerback -10.062440 -7.987380 -7.975160
upperback 0.668354 -10.299660 3.798860
thorax 7.382980 -5.319320 7.513600
lowerneck -45.335800 -5.682480 -20.265200
upperneck 48.755001 -6.593620 20.160000
head 24.282200 -2.212720 9.986620
rclavicle -0.000000 -0.000000
rhumerus -90.749603 21.068600 -173.050797
rradius 77.592400
rwrist -39.726002
rhand -50.302799 -81.084000
rfingers 14.250040
rthumb 2.730640 -141.034805
lclavicle -0.000000 -0.000000
lhumerus -24.235001 -39.347000 169.787399
lradius 54.512199
lwrist 10.195780
lhand -29.446400 -49.379398
lfingers 14.250040
lthumb 22.863400 9.957300
rfemur -65.800598 2.071200 32.087002
rtibia 99.437401
rfoot -39.383999 -20.534800
rtoes -31.122601
lfemur -16.147100 5.027300 -56.911999
ltibia 45.640400
lfoot -34.986198 7.526500
ltoes 7.245600
470
root 21.774000 34.751400 59.239601 8.005880 8.718680 6.198960
lowerback -8.819480 -8.083220 -8.076600
upperback -0.585104 -10.464900 3.603680
thorax 5.392140 -5.341220 7.493400
lowerneck -44.187401 -5.677780 -20.261801
upperneck 49.734798 -6.658780 19.776939
head 24.437201 -2.326440 9.855420
rclavicle -0.000000 -0.000000
rhumerus -93.405602 20.796600 -173.169601
rradius 77.838203
rwrist -39.540600
rhand -51.075600 -79.008598
rfingers 14.250040
rthumb 1.984322 -138.963593
lclavicle -0.000000 -0.000000
lhumerus -25.558399 -39.573399 170.136200
lradius 55.436001
lwrist 10.499280
lhand -29.828199 -49.694801
lfingers 14.250040
lthumb 22.495199 9.662140
rfemur -66.597198 1.867914 31.390400
rtibia 96.540001
rfoot -39.361801 -19.955080
rtoes -30.525999
lfemur -14.282480 5.035520 -57.439201
ltibia 44.012001
lfoot -35.442001 7.183840
ltoes 7.133320
471
root 21.781601 34.748001 59.495998 7.995860 9.030220 5.293660
lowerback -10.835940 -7.920980 -6.733920
upperback 0.941216 -10.254440 3.572860
thorax 7.963760 -5.280780 6.529220
lowerneck -45.515999 -6.147080 -20.378799
upperneck 49.168999 -7.209920 20.096399
head 24.560200 -2.506860 9.896660
rclavicle -0.000000 -0.000000
rhumerus -91.527603 19.071720 -172.374802
rradius 77.874802
rwrist -38.707001
rhand -52.915199 -72.415001
rfingers 14.250040
rthumb 0.207602 -132.374405
lclavicle -0.000000 -0.000000
lhumerus -22.033199 -41.348400 168.921005
lradius 56.088600
lwrist 11.772900
lhand -30.464199 -49.541801
lfingers 14.250040
lthumb 21.881800 9.848160
rfemur -67.471802 2.008960 32.347401
rtibia 93.624001
rfoot -38.860199 -20.402399
rtoes -35.359200
lfemur -12.401020 5.129340 -56.325802
ltibia 42.160599
lfoot -35.507198 6.810380
ltoes 5.739620
472
root 21.785999 34.771599 59.736599 8.081840 9.143680 5.531600
lowerback -12.499500 -8.060820 -7.015760
upperback 2.383120 -10.368320 3.470280
thorax 10.435740 -5.399220 6.393940
lowerneck -46.688202 -6.286660 -20.822001
upperneck 48.208599 -7.357600 21.114599
head 24.468201 -2.447380 10.320600
rclavicle 0.000000 -0.000000
rhumerus -89.523003 18.091999 -171.619995
rradius 78.106003
rwrist -37.934200
rhand -56.138000 -59.564999
rfingers 14.250040
rthumb -2.905120 -119.514603
lclavicle 0.000000 -0.000000
lhumerus -18.499840 -41.934601 167.588394
lradius 56.488400
lwrist 12.949140
lhand -30.955601 -49.616001
lfingers 14.250040
lthumb 21.407600 9.798640
rfemur -68.690804 2.834220 31.739000
rtibia 90.624397
rfoot -38.699799 -20.674601
rtoes -37.332199
lfemur -10.676960 5.370000 -56.454601
ltibia 40.547001
lfoot -35.410198 6.689780
ltoes 7.004720
473
root 21.798599 34.766201 59.984001 7.871380 9.020560 6.480340
lowerback -13.582220 -8.257440 -8.051560
upperback 3.725900 -10.493400 3.213340
thorax 12.552660 -5.542920 6.556960
lowerneck -47.676201 -6.307640 -20.694599
upperneck 47.156799 -7.311340 21.299400
head 24.248199 -2.358940 10.342320
rclavicle 0.000000 -0.000000
rhumerus -87.696800 17.842279 -171.298203
rradius 78.223999
rwrist -38.801399
rhand -54.320202 -64.555397
rfingers 14.250040
rthumb -1.149348 -124.513397
lclavicle 0.000000 -0.000000
lhumerus -15.243780 -41.803600 166.265396
lradius 56.873199
lwrist 13.994340
lhand -30.846001 -49.765202
lfingers 14.250040
lthumb 21.513599 9.643960
rfemur -69.345200 3.736200 30.272600
rtibia 87.476601
rfoot -39.241798 -19.939581
rtoes -34.891800
lfemur -8.376640 5.433720 -57.433998
ltibia 38.764198
lfoot -35.552200 6.909320
ltoes 7.046080
474
root 21.809799 34.750401 60.226799 7.846220 8.875740 6.517460
lowerback -12.568640 -8.223800 -7.924620
upperback 2.963260 -10.500760 3.272580
thorax 11.163720 -5.510640 6.648480
lowerneck -46.676201 -6.130880 -20.341000
upperneck 47.428001 -7.096240 20.557400
head 24.105200 -2.351640 10.026460
rclavicle 0.000000 -0.000000
rhumerus -89.557404 18.396200 -171.674805
rradius 78.224800
rwrist -40.461800
rhand -61.977402 -59.221001
rfingers 14.250040
rthumb -8.544440 -119.094803
lclavicle 0.000000 -0.000000
lhumerus -15.920160 -41.763599 166.602402
lradius 57.777401
lwrist 14.040620
lhand -30.756201 -49.879601
lfingers 14.250040
lthumb 21.600201 9.525140
rfemur -70.146004 4.917040 29.770399
rtibia 84.279999
rfoot -39.684200 -19.233580
rtoes -32.646400
lfemur -6.221640 4.932160 -57.472000
ltibia 36.530399
lfoot -35.422199 7.480660
ltoes 5.869460
475
root 21.816401 34.763199 60.485600 7.932460 9.019780 6.077600
lowerback -10.157380 -8.417220 -7.294720
upperback 0.793678 -10.900220 3.511680
thorax 7.532040 -5.604980 6.766620
lowerneck -45.028000 -5.551040 -19.873760
upperneck 49.268799 -6.507440 19.788960
head 24.396000 -2.196720 9.806360
rclavicle 0.000000 -0.000000
rhumerus -93.789803 19.395241 -172.485199
rradius 78.200401
rwrist -41.231800
rhand -59.911800 -60.086800
rfingers 14.250040
rthumb -6.549680 -119.996002
lclavicle 0.000000 -0.000000
lhumerus -19.448759 -41.456402 167.839401
lradius 58.819801
lwrist 13.801060
lhand -31.489599 -50.417000
lfingers 14.250040
lthumb 20.892599 9.023900
rfemur -71.003197 5.714060 29.880600
rtibia 81.069603
rfoot -39.483799 -19.098499
rtoes -33.049801
lfemur -4.225240 4.357660 -56.936401
ltibia 34.356201
lfoot -35.033798 7.827300
ltoes 9.612780
476
root 21.823999 34.770199 60.761002 7.902740 9.098160 6.391360
lowerback -8.423440 -8.793460 -7.565300
upperback -0.664978 -11.450100 3.551620
thorax 5.128380 -5.820040 7.107600
lowerneck -44.107399 -4.941780 -19.148380
upperneck 50.589600 -5.834380 18.975679
head 24.618999 -1.964210 9.520940
rclavicle 0.000000 0.000000
rhumerus -96.737396 20.141399 -172.962204
rradius 78.486000
rwrist -41.272202
rhand -60.800400 -54.919800
rfingers 14.250040
rthumb -7.407920 -114.814796
lclavicle 0.000000 0.000000
lhumerus -21.778799 -40.944599 168.470993
lradius 59.565399
lwrist 14.097340
lhand -32.069000 -50.892601
lfingers 14.250040
lthumb 20.333799 8.576140
rfemur -71.712997 5.888320 29.385201
rtibia 77.959801
rfoot -39.246601 -18.461420
rtoes -34.434200
lfemur -2.070500 4.322520 -57.184399
ltibia 32.445999
lfoot -34.929600 7.711320
ltoes 13.187400
477
root 21.821400 34.737000 61.019600 8.124120 8.824440 6.984060
lowerback -10.021320 -8.802020 -8.277880
upperback 0.424404 -11.359120 3.474480
thorax 7.207100 -5.840160 7.253780
lowerneck -44.640598 -5.051060 -19.287239
upperneck 49.507000 -5.814400 18.962721
head 24.300800 -1.948760 9.501920
rclavicle 0.000000 -0.000000
rhumerus -95.403397 19.662840 -172.286804
rradius 78.847000
rwrist -40.851002
rhand -61.891399 -49.560200
rfingers 14.250040
rthumb -8.461460 -109.435600
lclavicle 0.000000 -0.000000
lhumerus -19.264799 -41.747799 167.709000
lradius 60.103802
lwrist 15.149300
lhand -31.648001 -50.775200
lfingers 14.250040
lthumb 20.740000 8.673440
rfemur -72.658798 6.648280 28.480801
rtibia 74.975800
rfoot -39.654800 -16.852579
rtoes -33.130199
lfemur -0.204946 4.872200 -57.690399
ltibia 30.468000
lfoot -34.868999 7.444640
ltoes 13.723080
